<svg xmlns="http://www.w3.org/2000/svg" width="24" height="23" class="mdl-js"><path fill="#2AC06C" d="M22.994 10.668c-.414-3.622-2.512-6.706-5.466-8.375C17.475 1.019 16.47 0 15.23 0c-.773 0-1.454.398-1.873 1.005a10.252 10.252 0 00-.896-.047c-5.403 0-9.854 4.195-10.52 9.618a1.588 1.588 0 00-.326-.034c-.892 0-1.615.75-1.615 1.677s.723 1.677 1.615 1.677c.136 0 .267-.023.394-.056a11.167 11.167 0 002.153 5c-.001.028-.008.057-.008.087 0 .927.723 1.677 1.615 1.677.029 0 .056-.008.085-.009C7.667 22.097 9.96 23 12.462 23c5.265 0 9.624-3.985 10.459-9.206A1.669 1.669 0 0024 12.219c0-.702-.417-1.301-1.006-1.551zM8.061 8.896c.208.129.448.208.708.208.764 0 1.384-.644 1.384-1.438 0-.208-.045-.404-.121-.583a5.12 5.12 0 012.429-.615c2.931 0 5.307 2.467 5.307 5.51 0 3.044-2.376 5.511-5.307 5.511a5.163 5.163 0 01-3.298-1.197 190.156 190.156 0 002.54-2.57c.231.11.487.173.758.173 1.02 0 1.846-.858 1.846-1.917 0-1.058-.826-1.916-1.846-1.916s-1.847.858-1.847 1.916c0 .281.062.546.167.787l-2.503 2.598a5.614 5.614 0 01-1.125-3.385c0-1.141.335-2.202.908-3.082zm12.707 3.323c0 .606.312 1.13.775 1.426-.76 4.497-4.533 7.918-9.082 7.918a8.949 8.949 0 01-5.32-1.76 1.73 1.73 0 00.242-.876c0-.277-.07-.535-.185-.765.313-.275.696-.633 1.117-1.04a6.295 6.295 0 004.145 1.566c3.57 0 6.462-3.003 6.462-6.709 0-3.705-2.893-6.708-6.462-6.708a6.25 6.25 0 00-3.379.999 1.333 1.333 0 00-.313-.04c-.765 0-1.385.643-1.385 1.437 0 .051.01.1.015.15a6.835 6.835 0 00-1.4 4.162 6.84 6.84 0 001.456 4.24l-1.106 1.147a1.563 1.563 0 00-.58-.116c-.31 0-.597.096-.843.253A9.78 9.78 0 013.23 11.98c0-5.292 4.133-9.583 9.231-9.583.156 0 .31.016.464.024.013 1.312 1.039 2.371 2.305 2.371.798 0 1.502-.42 1.916-1.06 2.397 1.472 4.095 4.029 4.462 7.025-.497.286-.839.83-.839 1.463z"/></svg>