<svg version="1.1" class="svg-icon user-add-icon" xmlns="http://www.w3.org/2000/svg" x="0px" y="0px"
	 viewBox="0 0 512 512" style="enable-background:new 0 0 512 512;" xml:space="preserve" width="23">
<style type="text/css">
	.st0{fill:#1C1C1C;}
</style>
<path class="st0" d="M310.6,240.7c22.9-18.1,37.7-46.1,37.7-77.5c0-54.5-44.5-98.8-99.3-98.8s-99.3,44.3-99.3,98.8
	c0,3.6,0.2,7.1,0.6,10.6c-11.3-6.2-24.2-9.7-38-9.7c-43.7,0-79.2,35.4-79.2,78.9c0,22.7,9.7,43.2,25.1,57.6
	C24,315.7,0,349.9,0,389.6v91.8C0,498.3,13.7,512,30.6,512h111.2h10h204.4c19.6,0,35.5-15.9,35.5-35.5V356.2
	C391.7,303.1,357.8,257.8,310.6,240.7L310.6,240.7z M249,94.4c38.2,0,69.3,30.9,69.3,68.8s-31.1,68.8-69.3,68.8
	s-69.3-30.9-69.3-68.8S210.8,94.4,249,94.4z M112.3,194.2c27.2,0,49.2,21.9,49.2,48.9c0,3.9-0.5,7.8-1.4,11.6
	c-13.8,9.4-25.6,21.5-34.6,35.6c-4.3,1.2-8.7,1.8-13.3,1.8c-27.2,0-49.2-21.9-49.2-48.9C63.1,216.1,85.2,194.2,112.3,194.2
	L112.3,194.2z M30,481.4v-91.8c0-37,30.1-67.1,67.1-67.1H111c-3.1,10.7-4.7,22-4.7,33.7v120.4c0,1.9,0.1,3.7,0.4,5.5H30.6
	C30.3,482,30,481.7,30,481.4z M361.7,476.5c0,3-2.5,5.5-5.5,5.5H151.8h-10c-3,0-5.5-2.5-5.5-5.5V356.2c0-51.1,41.6-92.7,92.7-92.7
	h39.9c51.1,0,92.7,41.6,92.7,92.7V476.5z"/>
<path class="st0" d="M497,42.4h-27.6V15c0-8.3-6.7-15-15-15s-15,6.7-15,15v27.4h-27.6c-8.3,0-15,6.7-15,15s6.7,15,15,15h27.6v27.4
	c0,8.3,6.7,15,15,15s15-6.7,15-15V72.4H497c8.3,0,15-6.7,15-15S505.3,42.4,497,42.4z"/>
</svg>
