<svg version="1.1" class="svg-icon wifi-icon" xmlns="http://www.w3.org/2000/svg" xmlns:xlink="http://www.w3.org/1999/xlink" x="0px" y="0px"
	 viewBox="0 0 512 512" style="enable-background:new 0 0 512 512;" xml:space="preserve" width="22">
<style type="text/css">
	.st0{fill:#7700FF;}
</style>
<path class="st0" d="M60,512c33.1,0,61-26.9,61-60s-27.9-61-61-61S0,418.9,0,452S26.9,512,60,512z"/>
<path class="st0" d="M15,300h30c91.1,0,167,75.9,167,167v30c0,8.3,6.7,15,15,15h30c8.3,0,15-6.7,15-15v-30
	c0-124.3-102.7-227-227-227H15c-8.3,0-15,6.7-15,15v30C0,293.3,6.7,300,15,300z"/>
<path class="st0" d="M15,180h30c157.4,0,287,129.6,287,287v30c0,8.3,6.7,15,15,15h30c8.3,0,15-6.7,15-15v-30
	c0-190.5-156.5-347-347-347H15c-8.3,0-15,6.7-15,15v30C0,173.3,6.7,180,15,180z"/>
<path class="st0" d="M45,0H15C6.7,0,0,6.7,0,15v30c0,8.3,6.7,15,15,15h30c223.7,0,407,183.3,407,407v30c0,8.3,6.7,15,15,15h30
	c8.3,0,15-6.7,15-15v-30C512,210.2,301.8,0,45,0z"/>
</svg>
